# xmcd CD database file
#
# Track frame offsets:
#	150
#	27121
#	55024
#	83358
#	103691
#	128131
#	146198
#	173919
#	191803
#	214255
#	238830
#	275244
#
# Disc length: 4089 seconds
#
# Revision: 0
# Processed by: cddbd v1.5.1PL0 Copyright (c) Steve Scherf et al.
# Submitted via: CDex 1.51
#
DISCID=b00ff70c
DTITLE=Billy Butler - Don't Be That Way
DYEAR=2000
DGENRE=Jazz
TTITLE0=Don't Be That Way
TTITLE1=Jelly Jelly
TTITLE2=Lullabies in Rhythm
TTITLE3=Staighten Up and Fly Right
TTITLE4=You Go to my Head
TTITLE5=Indiana
TTITLE6=Blues for Marian
TTITLE7=Cherry
TTITLE8=Ghost of a Chance
TTITLE9=In the Evening
TTITLE10=Satin Doll
TTITLE11=April in Paris
EXTD=YEAR: 2000
EXTT0=
EXTT1=
EXTT2=
EXTT3=
EXTT4=
EXTT5=
EXTT6=
EXTT7=
EXTT8=
EXTT9=
EXTT10=
EXTT11=
PLAYORDER=
